<?xml version="1.0" encoding="UTF-8"?>
<svg version="1.1" viewBox="0 0 960 960" width="1280" height="1280" xmlns="http://www.w3.org/2000/svg">
<path transform="translate(462,186)" d="m0 0h35l31 3 24 4 36 9 28 10 19 8 16 8 18 10 27 18 18 14 15 13 22 22 7 8 12 14 13 18 12 19 9 16 16 32 9 24 8 28 5 22 4 30 2 28v24l-3 36-4 25-6 26-12 36-14 30-13 24-10 15-9 13-10 13-9 10-7 8-9 10-11 11-8 7-13 11-19 14-15 10-18 11-19 10-29 12-27 9-32 8-25 4-17 2h-60l-31-4-24-5-21-6-21-7-28-11-20-10-14-8-18-12-19-14-16-13-10-9-19-19-7-8-13-15-13-18-12-19-11-20-11-23-8-19-7-21-8-32-3-15-3-24-2-35v-15l1-2 1-23 5-32 6-26 8-26 11-27 10-21 13-23 9-13 12-17 8-10 12-14 29-29 11-9 17-13 16-11 21-13 23-12 27-11 25-8 27-7 20-4 26-3zm14 63-12 5-11 9-9 11-10 15-9 16-9 21-7 19-10 36-6 27-6 34-4 30-3 37-1 18v61l1 9 26 4 48 4h38l11-1 24-2 36-5 14-3 2-3 1-7v-52l-3-46-4-35-7-43-9-39-12-38-9-21-8-16-11-17-10-13-10-9-11-5zm105 16 2 6 9 19 10 27 6 19 10 37 8 37 5 33 3 24 3 41 1 25 1 44 22-8 27-12 24-11 23-13 19-12 25-17 2-2-1-11-7-26-6-18-12-27-11-21-10-16-12-16-9-11-14-15-17-17-14-11-15-11-15-10-21-12-25-11zm-206 1-21 8-22 11-19 12-16 11-14 11-10 9-6 5-7 8-9 9-7 8-10 12-12 17-10 17-11 21-10 24-8 24-6 25-1 12 7 6 23 15 15 9 19 10 24 11 24 10 30 11h2l1-56 2-38 4-40 4-27 8-42 11-41 10-30 10-25 7-15v-2zm410 306-18 10-15 9-25 13-8 3-16 8-27 11-25 9-16 5-3 27-4 27-4 23-8 36-10 35-10 29-8 18-3 7 6-1 25-11 20-11 15-10 14-10 14-11 10-9 17-17 9-11 11-13 11-16 9-15 11-21 8-18 8-22 7-27 5-30 2-17zm-613 9 6 35 7 28 9 24 9 20 13 25 16 24 14 17 12 13 7 8 12 11 11 9 16 12 11 7 15 9 23 12 18 8h2l-3-9-11-27-8-25-8-28-7-30-6-32-6-47-7-3-21-6-21-7-34-14-27-13-16-8-17-9-6-4zm397 74-30 4-33 3h-72l-46-5h-3l2 19 8 44 9 36 12 36 8 18 10 19 11 16 11 12 11 8 10 4 11-2 10-6 8-7 9-11 12-18 9-17 10-26 8-24 10-40 7-38 4-25z" fill="white"/>
<path transform="translate(467,33)" d="m0 0h25l13 5 11 8 8 9 5 8 5 16v11l-3 15-6 11-6 8-12 9-9 4-8 2-14 1-14-3-14-7-11-11-6-10-4-10-1-4v-17l4-12 7-13 10-10 7-5z" fill="white"/>
</svg>
